<?xml version="1.0" encoding="utf-8"?>
<!-- Generator: Adobe Illustrator 16.0.0, SVG Export Plug-In . SVG Version: 6.00 Build 0)  -->
<svg version="1.2" baseProfile="tiny" id="Слой_1"
	 xmlns="http://www.w3.org/2000/svg" xmlns:xlink="http://www.w3.org/1999/xlink" x="0px" y="0px" width="600px" height="173px"
	 viewBox="0 0 600 173" xml:space="preserve">
<g>
	<path fill-rule="evenodd" fill="#DD9F58" d="M0.396,78.125C1.046,71.54,2.493,65.057,4.712,58.78c0.9-2.55,1.907-5.061,3.021-7.525
		c1.132-2.5,2.394-4.944,3.786-7.31c4.22-7.173,9.087-13.763,15.105-19.478c8.704-8.264,18.657-14.529,29.942-18.733
		C68.125,1.427,80.057-0.226,92.289,0.49c9.148,0.535,18.021,2.558,26.54,6.079c2.026,0.838,4.036,1.704,6.039,2.594
		c2.257,1.003,2.992,1.97,2.344,3.249c-0.666,1.32-2.228,1.552-4.234,0.518c-4.154-2.144-8.474-3.881-12.947-5.208
		c-5.447-1.615-11.026-2.434-16.69-2.97C82.821,3.755,72.57,5.03,62.543,8.046c-7.929,2.384-15.367,5.896-22.26,10.592
		c-6.493,4.422-12.162,9.752-17.26,15.619c-5.172,5.954-9.079,12.801-12.236,20.062c-2.269,5.216-4.026,10.606-5.11,16.157
		C3.905,79.554,3.65,88.694,4.942,97.912c1.34,9.552,4.266,18.556,8.76,27.021c2.738,5.16,5.922,10.076,9.827,14.5
		c3.746,4.242,7.732,8.194,12.166,11.722c4.975,3.959,10.354,7.234,16.118,9.878c6.869,3.151,14.04,5.344,21.524,6.52
		c7.004,1.102,13.995,1.459,21.083,0.766c7.476-0.732,14.725-2.288,21.719-4.984c2.599-1.003,5.129-2.205,7.626-3.445
		c1.335-0.663,2.535-0.76,3.312,0.555c0.875,1.481-0.229,2.382-1.409,2.999c-4.43,2.317-9.102,4.048-13.864,5.533
		c-9.448,2.947-19.153,4.044-29.007,3.601c-11.15-0.5-21.823-3.058-32.032-7.673c-9.502-4.296-17.923-10.143-25.271-17.451
		c-6.521-6.486-12.15-14.106-16.237-22.342c-5.758-11.6-8.949-24.153-9.236-37.109C-0.054,84.693,0.073,81.396,0.396,78.125z"/>
	<path fill-rule="evenodd" fill="#373737" d="M28.745,52.673c-0.442,0.072-0.83,0.067-1.119,0.614
		c-4.01,7.568-6.949,15.461-8.036,24.031c-1.848,14.573,0.374,28.395,7.475,41.284c7.013,12.729,17.092,22.304,30.213,28.667
		c6.825,3.31,14.008,5.451,21.493,6.321c9.594,1.115,19.044,0.16,28.304-2.779c0.33-0.105,0.661-0.213,0.991-0.322
		c0.839-0.28,1.676-0.575,2.505-0.887c0.823-0.308,1.643-0.632,2.453-0.972c0.808-0.338,1.608-0.691,2.402-1.061
		c0.789-0.366,1.574-0.749,2.35-1.146c0.773-0.396,1.54-0.809,2.296-1.235c0.758-0.427,1.506-0.868,2.246-1.324
		c0.74-0.457,1.472-0.928,2.193-1.413c0.724-0.487,1.438-0.988,2.142-1.504c0.707-0.517,1.402-1.048,2.089-1.593
		c0.689-0.549,1.367-1.111,2.036-1.686c0.653-0.563,1.333-1.124,1.936-1.738c0.046-0.047,0.11-0.089,0.151-0.142
		c0.109-0.141,0.242-0.266,0.369-0.396c0.712-0.734,1.42-1.474,2.134-2.208c0.713-0.735,1.431-1.465,2.16-2.183
		c0.957-0.942,1.994-1.918,3.472-0.932c1.716,1.146,1.75,2.197,0.261,3.943c-4.664,5.475-10.232,9.868-16.268,13.721
		c-7.672,4.897-16.085,7.78-24.939,9.71c-4.324,0.942-8.748,1.278-13.009,1.236c-9.932-0.097-19.692-1.765-28.934-5.854
		c-5.895-2.607-11.391-5.782-16.444-9.758c-7.2-5.664-13.08-12.471-17.714-20.375c-3.96-6.76-6.85-13.965-8.336-21.627
		c-1.54-7.932-1.521-15.964-0.668-24.018c1.188-11.212,5.277-21.323,11.449-30.611c6.399-9.632,14.775-17.154,24.905-22.812
		c8.441-4.715,17.45-7.668,26.974-8.721c7.104-0.785,14.281-0.652,21.395,0.708c8.189,1.565,15.969,4.201,23.163,8.412
		c6.933,4.06,13.266,8.899,18.435,15.13c0.955,1.152,1.648,2.27,0.144,3.597c-1.453,1.28-2.602,0.663-3.63-0.45
		c-4.035-4.364-8.329-8.418-13.314-11.706c-7.525-4.963-15.642-8.358-24.516-10.179c-9.797-2.01-20.15-1.858-29.828,0.722
		c-2.778,0.741-5.506,1.653-8.231,2.567c-0.107,0.037-0.181,0.184-0.269,0.279c-1.117,0.865-2.891,0.695-3.561,2.264
		c-0.868-0.069-1.744-0.146-2.535,0.322c-2.174,1.283-4.308,2.642-6.523,3.854c-1.22,0.667-1.549,1.549-1.539,2.889
		c0.061,7.341-0.103,14.685,0.056,22.023c0.214,9.846-0.526,19.692,0.409,29.547c0.354,3.733,0.134,7.493,1.093,11.21
		c2.785,10.785,9.161,18.81,18.739,24.2c8.314,4.68,17.248,6.223,26.712,4.123c12.91-2.862,22.122-10.338,27.738-22.205
		c3.467-7.322,4.018-15.1,2.646-23.005c-1.08-6.221-3.736-11.869-7.697-16.689c-6.048-7.359-13.778-12.118-23.284-14.013
		c-8-1.594-15.531-0.37-22.941,2.632c-3.239,1.312-6.046,3.312-8.858,5.315c-0.359-0.163-0.863-0.37-0.695-0.799
		c0.689-1.766-0.415-3.628,0.351-5.371c1.383-0.03,2.436-0.884,3.55-1.515c8.715-4.936,18.09-6.6,27.91-5.173
		c7.465,1.084,14.28,3.964,20.244,8.745c6.867,5.504,11.848,12.269,14.671,20.654c1.793,5.33,2.028,10.783,1.954,16.321
		c-0.08,5.99-1.844,11.539-4.483,16.777c-3.896,7.729-9.771,13.644-17.246,18.063c-6.479,3.831-13.504,5.632-20.901,5.764
		c-8.116,0.146-15.748-1.835-22.835-6.027c-7.206-4.264-12.714-9.984-16.625-17.373c-3.781-7.144-4.957-14.816-4.973-22.744
		c-0.031-15.612,0.006-31.225,0.011-46.838c0-0.442,0.207-1.003-0.312-1.261c-0.579-0.288-0.806,0.338-1.097,0.628
		c-2.453,2.448-4.917,4.887-7.289,7.412c-0.891,0.948-1.789,2.003-1.643,3.491c-1.071-0.227-1.41,0.696-1.941,1.275
		C29.638,49.669,29.27,51.212,28.745,52.673z"/>
	<path fill-rule="evenodd" fill="#373737" d="M195.26,105.9c-0.088,0.045-0.175,0.095-0.261,0.156
		c-0.232,0.166-0.464,0.331-0.699,0.493c-0.46,0.319-0.928,0.631-1.397,0.936c-1.515,0.981-3.091,1.874-4.758,2.57
		c-0.82,0.343-1.661,0.638-2.519,0.875c-5.029,1.391-10.059,1.449-15.184,0.687c-4.316-0.644-8.209-2.153-11.66-4.83
		c-4.476-3.474-7.169-8.049-8.659-13.47c-0.91-3.314-1.354-6.67-1.024-10.044c0.724-7.421,3.182-14.019,9.227-18.955
		c4.392-3.584,9.345-5.21,14.904-5.925c7.199-0.924,13.474,1.002,19.397,4.83c1.123,0.725,1.667,2.064,3.026,2.534
		c0.513,0.178,0.366,0.779-0.047,1.155c-1.962,1.791-3.907,3.602-5.901,5.356c-0.543,0.478-1.104,0.185-1.598-0.271
		c-3.04-2.801-6.908-4.054-10.768-4.122c-6.283-0.11-11.897,1.929-15.473,7.696c-4.147,6.69-3.406,18.115,3.28,23.377
		c2.082,1.64,4.478,2.625,6.993,3.238c4.939,1.206,9.587,0.176,13.988-2.207c0.468-0.253,0.946-0.51,1.354-0.843
		c2.269-1.853,2.26-1.86,4.374,0.255c1.32,1.32,2.671,2.613,3.959,3.966c0.857,0.902,1.303,0.581,1.698-0.395
		c2.781-6.843,5.929-13.521,9.009-20.232c3.382-7.367,6.612-14.805,9.882-22.222c0.42-0.954,0.938-1.496,2.084-1.472
		c2.666,0.056,5.335,0.011,8.003-0.029c1.053-0.016,1.727,0.363,2.179,1.37c3.486,7.762,7.021,15.502,10.522,23.257
		c2.684,5.936,5.346,11.881,8.01,17.825c1.223,2.728,2.38,5.485,3.656,8.187c0.522,1.106,0.047,1.312-0.872,1.315
		c-2.937,0.013-5.873-0.014-8.809,0.035c-0.847,0.014-1.107-0.41-1.406-1.094c-1.037-2.378-2.222-4.692-3.226-7.083
		c-0.449-1.066-1.019-1.566-2.207-1.563c-7.876,0.026-15.753,0.016-23.628-0.016c-1.112-0.005-1.73,0.5-2.097,1.483
		c-0.881,2.366-2.07,4.594-3.089,6.894c-0.428,0.963-0.794,1.365-1.827,1.352c-2.802-0.039-5.605,0.009-8.41,0.016
		c-0.985,0.002-1.617-0.147-0.93-1.39c0.339-0.61,0.594-1.264,0.835-1.917c0.122-0.334,0.243-0.668,0.368-1
		c0.086-0.226,0.158-0.456,0.26-0.675c0.102-0.221,0.17-0.489-0.156-0.309C195.526,105.773,195.391,105.833,195.26,105.9z
		 M222.617,71.06c-1.436,3.176-2.726,6.004-3.995,8.841c-1.569,3.506-3.103,7.029-4.692,10.525c-0.63,1.384-0.049,1.578,1.201,1.569
		c5.126-0.036,10.251-0.027,15.377,0.042c1.051,0.015,1.206-0.402,0.867-1.174C228.527,84.381,225.652,77.912,222.617,71.06z"/>
	<path fill-rule="evenodd" fill="#DD9F58" d="M58.063,26.252c0.67-1.568,2.443-1.399,3.561-2.264
		c0.407,2.701,0.128,5.417,0.164,8.125c0.029,2.335,0.069,2.446,2.171,1.545c8.245-3.533,16.874-4.843,25.769-4.423
		c10.185,0.48,19.558,3.552,28.186,9.028c6.373,4.044,11.735,9.138,16.01,15.289c6.323,9.096,9.872,19.171,10.373,30.35
		c0.514,11.405-2.105,21.981-7.88,31.727c-3.148,5.313-7.031,10.086-11.804,14.158c-5.814,4.96-12.256,8.651-19.459,11.109
		c-8.745,2.985-17.693,3.678-26.812,2.448c-9.148-1.232-17.479-4.629-24.972-9.958c-13.77-9.792-21.695-23.236-24.014-39.883
		c-0.656-4.725-0.428-9.587-0.432-14.386c-0.009-8.449,0.111-16.897,0.198-25.346c0.006-0.442-0.144-0.769-0.376-1.098
		c0.522-1.461,0.891-3.004,1.98-4.188c0.531-0.579,0.87-1.501,1.941-1.275c0.081,0.861,0.232,1.722,0.233,2.583
		c0.037,12.617,0.03,25.233,0.086,37.85c0.03,6.948,1.555,13.649,4.285,19.975c4.302,9.96,11.102,17.937,20.318,23.742
		c14.009,8.825,29.05,10.767,44.87,6.198c8.091-2.337,15.005-6.731,21.238-12.511c7.717-7.155,12.632-15.849,15.11-25.827
		c2.657-10.693,1.918-21.355-2.057-31.76c-3.852-10.076-10.251-18.168-18.937-24.373c-6.729-4.809-14.21-7.967-22.529-9.165
		c-10.913-1.573-21.332-0.511-31.36,4.317c-1.807,0.87-2.083,1.962-2.113,3.51c-0.057,2.845,0.282,5.693-0.082,8.536
		c-0.766,1.743,0.339,3.605-0.351,5.371c-0.168,0.429,0.336,0.636,0.695,0.799c-0.67,4.167,0.143,8.366-0.266,12.541
		c-0.045,0.481-0.234,1.192,0.455,1.369c0.644,0.164,0.829-0.522,1.152-0.924c3.898-4.812,8.612-8.393,14.622-10.27
		c7.005-2.191,13.89-1.792,20.452,1.164c5.813,2.617,10.433,6.782,13.531,12.538c3.696,6.867,4.476,13.999,2.331,21.441
		c-1.161,4.031-3.021,7.647-5.881,10.878c-4.756,5.371-10.599,8.839-17.55,9.72c-9.77,1.238-18.46-1.581-25.335-8.949
		c-4.272-4.581-7.349-10.053-7.436-16.256C57.856,68.559,58.055,47.404,58.063,26.252z M111.393,86.806
		c0.2-13.607-10.543-25.381-25.462-24.943c-13.284,0.39-23.809,10.349-24.072,24.568c-0.25,13.522,11.022,24.667,24.732,24.817
		C100.131,111.397,111.704,99.98,111.393,86.806z"/>
	<path fill-rule="evenodd" fill="#DD9F58" d="M356.912,85.456c0-7.674,0.05-15.35-0.036-23.023c-0.02-1.832,0.558-2.47,2.396-2.45
		c8.208,0.088,16.427-0.16,24.623,0.179c5.162,0.214,9.944,2.014,12.992,6.627c3.148,4.767,3.437,13.463-3.012,17.049
		c-1.876,1.044-0.083,1.737,0.513,1.997c2.351,1.024,3.757,2.873,4.836,5.039c3.263,6.561,0.948,15.9-7.724,18.914
		c-2.844,0.988-5.792,1.513-8.822,1.515c-7.741,0.003-15.482,0.03-23.224,0.04c-2.404,0.003-2.554-0.138-2.558-2.66
		c-0.013-7.742-0.005-15.483-0.005-23.226C356.899,85.456,356.905,85.456,356.912,85.456z M376.394,89.275
		c0-0.026-5.331-0.045-7.995-0.091c-1.335-0.023-1.921,0.446-1.886,1.865c0.082,3.129,0.076,6.264,0.023,9.395
		c-0.021,1.281,0.426,1.778,1.735,1.761c4.998-0.066,9.995-0.067,14.992-0.07c1.58-0.001,3.026-0.55,4.39-1.195
		c3.486-1.651,4.456-5.413,2.024-8.266c-1.647-1.934-3.75-3.377-6.488-3.396C380.924,89.264,378.659,89.275,376.394,89.275z
		 M366.31,77.299c-0.061,2.854,0.047,2.904,2.689,3.289c3.337,0.484,13.676,0.16,15.527-0.222c4.758-0.981,6.411-5.546,3.271-9.216
		c-1.221-1.428-2.878-2.1-4.744-2.255c-4.909-0.413-9.838,0.267-14.752-0.266c-1.433-0.154-2.054,0.791-1.973,2.146
		C366.463,73.028,366.567,75.277,366.31,77.299z"/>
	<path fill-rule="evenodd" fill="#DD9F58" d="M453.473,62.113c-0.013-1.499,0.313-2.175,1.968-2.154
		c8.598,0.107,17.228-0.31,25.788,0.288c10.303,0.719,16.752,9.797,15.146,20.022c-0.833,5.304-3.657,9.013-8.282,11.477
		c-0.867,0.462-1.838,0.792-2.801,1.005c-1.259,0.278-1.413,0.627-0.511,1.626c4.403,4.882,8.75,9.813,13.128,14.719
		c0.452,0.506,1.042,1.003,0.769,1.72c-0.316,0.828-1.146,0.466-1.769,0.483c-0.841,0.023-8.783,0.119-8.783,0.119
		s-11.145-12.282-13.577-15.193c-1.183-1.413-2.483-2.297-4.466-2.096c-1.584,0.161-3.199-0.007-4.803-0.01
		c-1.329-0.003-2.012,0.412-2.006,2.01c0.018,3.991-0.19,7.975,0.14,11.975c0.231,2.799-0.354,3.226-3.17,3.229
		c-1.469,0.002-2.938-0.009-4.406,0.023c-1.645,0.037-2.384-0.601-2.338-2.377c0.104-3.937,0.025-19.56,0.025-23.432
		C453.519,85.546,453.535,69.923,453.473,62.113z M472.565,69.132c-2.552,0-4.821,0.056-7.085-0.021
		c-1.437-0.047-2.083,0.453-2.064,1.947c0.05,4.132,0.056,8.265,0.014,12.397c-0.013,1.357,0.49,1.926,1.874,1.909
		c4.399-0.052,8.805,0.077,13.198-0.087c2.468-0.092,4.67-0.925,6.461-2.948c4.095-4.629,0.719-12.469-4.303-12.928
		C477.858,69.147,475.068,69.319,472.565,69.132z"/>
	<path fill-rule="evenodd" fill="#DD9F58" d="M503.217,84.081c0-7.622,0.046-14.626-0.033-21.629
		c-0.02-1.752,0.384-2.522,2.319-2.496c7.871,0.111,15.748-0.072,23.612,0.154c6.753,0.195,12.294,2.922,15.514,9.171
		c3.558,6.903,1.917,17.028-4.803,21.312c-1.538,0.979-3.186,1.618-4.914,2.105c-1.131,0.318-1.398,0.686-0.457,1.698
		c4.165,4.479,8.261,9.02,12.358,13.559c0.736,0.816,1.963,1.711,1.473,2.822c-0.477,1.083-1.919,0.506-2.935,0.536
		c-2.065,0.062-4.136,0.001-6.203,0.026c-1.301,0.016-2.232-0.521-3.085-1.517c-4.08-4.774-8.231-9.488-12.339-14.238
		c-0.942-1.088-2.039-1.563-3.511-1.477c-1.861,0.109-3.733,0.033-5.601-0.002c-1.329-0.025-1.76,0.643-1.654,1.881
		c0.375,4.381-0.342,8.772,0.158,13.158c0.184,1.621-0.715,2.27-2.311,2.206c-1.731-0.066-3.473-0.087-5.202,0.009
		c-1.583,0.087-2.024-0.572-2.107-2.103C503.025,100.661,503.391,92.061,503.217,84.081z M522.145,85.342c0-0.016,0-0.032,0-0.048
		c2.335,0,4.671,0.045,7.004-0.018c1.324-0.036,2.618-0.25,3.781-1.049c3.409-2.343,4.794-5.738,3.347-9.76
		c-1.172-3.25-3.331-5.325-7.568-5.47c-4.666-0.159-9.339-0.053-14.01-0.115c-1.398-0.02-1.883,0.59-1.863,1.932
		c0.065,4.202,0.117,8.405,0.064,12.606c-0.018,1.397,0.484,1.948,1.841,1.93C517.208,85.318,519.677,85.342,522.145,85.342z"/>
	<path fill-rule="evenodd" fill="#373737" d="M303.318,85.279c0-8.007,0.035-16.015-0.033-24.021
		c-0.013-1.457,0.48-1.866,1.844-1.815c2.198,0.082,4.406,0.112,6.604,0.007c1.5-0.073,1.931,0.41,1.908,1.93
		c-0.089,6.07,0.005,12.144-0.064,18.214c-0.015,1.267,0.346,1.562,1.568,1.551c7.14-0.063,14.278-0.079,21.418-0.013
		c1.465,0.013,1.821-0.492,1.806-1.858c-0.067-5.87,0.02-11.743-0.095-17.613c-0.034-1.786,0.521-2.34,2.275-2.21
		c2.056,0.151,4.145,0.179,6.196,0.001c1.707-0.147,1.976,0.546,1.968,2.029c-0.055,10.009-0.04,20.019-0.039,30.028
		c0,5.805-0.026,11.61,0.055,17.415c0.021,1.489-0.26,2.186-1.949,2.081c-2.258-0.139-4.535-0.04-6.803,0.005
		c-1.28,0.023-1.707-0.473-1.69-1.799c0.074-5.671,0.005-11.343,0.053-17.014c0.012-1.258-0.33-1.827-1.684-1.819
		c-7.072,0.041-14.146,0.055-21.219-0.004c-1.52-0.013-1.903,0.515-1.881,1.989c0.09,5.604,0.014,11.21,0.066,16.813
		c0.013,1.32-0.234,1.943-1.774,1.831c-2.189-0.159-4.402-0.093-6.602-0.013c-1.414,0.053-1.979-0.285-1.961-1.895
		c0.097-7.939,0.044-15.881,0.044-23.821C303.325,85.279,303.322,85.279,303.318,85.279z"/>
	<path fill-rule="evenodd" fill="#373737" d="M274.301,57.476c6.545,0.046,12.65,1.311,17.491,6.228
		c0.957,0.972,1.458,2.218,2.318,3.238c0.408,0.484,0.495,1.137-0.239,1.519c-2.002,1.037-4.007,2.073-6.03,3.069
		c-0.746,0.367-1.532,0.536-2.15-0.302c-1.769-2.394-4.432-3.353-7.086-4.18c-4.447-1.385-8.747-1.002-12.649,1.744
		c-2.741,1.93-2.581,6.121,0.234,7.89c2.493,1.567,5.327,2.155,8.148,2.406c4.593,0.407,9.127,1.14,13.285,3.049
		c5.072,2.329,8.449,6.449,8.465,12.824c0.011,4.597-1.077,8.542-4.336,11.766c-2.583,2.555-5.884,3.815-9.329,4.72
		c-4.766,1.252-9.641,1.322-14.437,0.587c-7.182-1.1-12.906-4.531-16.141-11.401c-0.633-1.348,0.327-1.71,1.068-2.123
		c1.972-1.101,4.041-2.028,6.005-3.142c0.92-0.521,1.197,0.095,1.573,0.604c4.997,6.753,12.61,8.991,20.536,6.022
		c3.09-1.156,4.722-3.193,4.747-5.928c0.028-2.9-1.375-4.916-4.244-5.942c-2.815-1.008-5.784-1.28-8.714-1.775
		c-5.08-0.856-10.23-1.636-14.461-4.97c-4.092-3.226-5.455-9.048-4.266-13.858c1.825-7.379,7.578-10.088,14.265-11.567
		C270.313,57.521,272.289,57.36,274.301,57.476z"/>
	<path fill-rule="evenodd" fill="#DD9F58" d="M407.399,85.533c0-7.674,0.046-15.349-0.031-23.022
		c-0.02-1.879,0.542-2.553,2.502-2.538c11.411,0.091,22.821,0.083,34.233,0.048c1.375-0.004,1.949,0.391,1.892,1.802
		c-0.076,1.932-0.113,3.873-0.01,5.801c0.074,1.364-0.444,1.704-1.727,1.697c-8.007-0.043-16.016-0.01-24.022-0.021
		c-3.231-0.004-3.25-0.006-3.229,3.185c0.013,2.27,0.082,4.54,0.013,6.807c-0.046,1.473,0.487,1.975,1.984,1.966
		c7.674-0.049,15.348-0.01,23.021,0.014c2.76,0.009,2.769,0.034,2.756,2.824c-0.004,1.269-0.106,2.543-0.004,3.802
		c0.145,1.782-0.62,2.316-2.334,2.299c-7.473-0.071-14.947-0.046-22.42-0.053c-2.999-0.003-2.996,0.002-2.988,2.95
		c0.005,2.202,0.103,4.41-0.027,6.604c-0.096,1.617,0.5,2.063,2.053,2.052c8.007-0.051,16.016-0.028,24.022,0.008
		c2.913,0.014,2.905,0.063,2.872,2.905c-0.017,1.601-0.029,3.203,0.007,4.805c0.027,1.216-0.399,1.869-1.727,1.866
		c-11.679-0.025-23.356-0.044-35.034-0.01c-1.646,0.005-1.822-0.886-1.819-2.167c0.019-7.874,0.009-15.749,0.009-23.623
		C407.395,85.533,407.397,85.533,407.399,85.533z"/>
	<path fill-rule="evenodd" fill="#DD9F58" d="M569.729,100.377c0-2.936-0.003-5.87,0.001-8.806c0.002-1.092-0.258-2.06-0.898-2.998
		c-4.876-7.136-9.764-14.264-14.511-21.483c-1.166-1.771-2.3-3.576-3.459-5.357c-0.651-1-0.562-1.676,0.777-1.687
		c3.125-0.025,6.249-0.002,9.372,0.013c1.255,0.006,1.661,1.092,2.089,1.918c3.003,5.799,6.988,11.01,10.003,16.806
		c0.981,1.889,1.98,1.798,3.118,0.025c3.631-5.652,7.325-11.265,10.854-16.979c1.036-1.677,2.402-2.167,4.122-2.018
		c2.329,0.202,4.642,0.324,6.976,0.047c0.624-0.074,1.433-0.097,1.754,0.622c0.306,0.685-0.415,1.043-0.754,1.505
		c-5.901,8.037-11.183,16.508-17.181,24.479c-1.829,2.432-2.647,5.117-2.439,8.312c0.31,4.717,0.036,9.469,0.12,14.204
		c0.029,1.682-0.44,2.473-2.254,2.365c-2.062-0.123-4.135-0.087-6.202-0.033c-1.141,0.028-1.494-0.419-1.475-1.53
		c0.057-3.135,0.021-6.271,0.021-9.405C569.751,100.377,569.74,100.377,569.729,100.377z"/>
	<path fill-rule="evenodd" fill="#373737" d="M70.04,86.215C69.92,77.077,77.716,70,86.041,69.84
		c11.236-0.216,17.423,9.077,17.297,16.525c-0.193,11.46-8.954,16.673-15.686,16.913C76.819,103.666,69.721,95.475,70.04,86.215z"/>
</g>
</svg>
