<?xml version="1.0" encoding="utf-8"?>
<!-- Generator: Adobe Illustrator 16.0.0, SVG Export Plug-In . SVG Version: 6.00 Build 0)  -->
<svg version="1.2" baseProfile="tiny" id="Слой_1"
	 xmlns="http://www.w3.org/2000/svg" xmlns:xlink="http://www.w3.org/1999/xlink" x="0px" y="0px" width="200px" height="75px"
	 viewBox="0 0 200 75" xml:space="preserve">
<g>
	<rect x="125.59" y="0.295" fill="#ADD520" width="74.41" height="74.41"/>
	<polygon fill="#222222" points="10.571,61.799 19.321,52.257 13.008,52.257 5.285,61.212 5.285,52.257 0,52.257 0,72.517 
		5.285,72.517 5.285,66.292 6.724,64.706 12.45,72.517 19.057,72.517 	"/>
	<path fill="#222222" d="M30.526,56.426c-0.998,0-2.231,0.44-3.083,1.38l-1.116,2.202v-3.171h-5.286v15.68h5.286v-5.755
		c0-4.728,1.438-6.195,5.402-5.932v-4.316C31.349,56.455,31.026,56.426,30.526,56.426z"/>
	<path fill="#222222" d="M40.587,60.008c1.41,0,2.319,0.911,2.614,2.76h-5.315C38.238,60.83,39.207,60.008,40.587,60.008z
		 M48.721,64.471c0-4.052-2.643-8.045-7.869-8.045c-5.227,0-8.369,3.729-8.369,8.31c0,5.521,3.582,8.192,8.075,8.192
		c4.022,0,6.959-1.996,7.869-5.55H43.23c-0.205,1.204-1.116,1.968-2.613,1.968s-2.643-0.734-2.907-3.347h10.923
		C48.692,65.47,48.721,64.941,48.721,64.471z"/>
	<path fill="#222222" d="M58.85,69.346c-1.85,0-3.319-1.645-3.319-4.581c0-3.2,1.41-4.757,3.465-4.757c1.585,0,3.2,1.057,3.2,4.199
		v0.676C62.196,68.171,60.787,69.346,58.85,69.346z M67.482,50.936h-5.286v7.928l-1.027-1.674c-0.793-0.471-2.319-0.764-3.612-0.764
		c-4.023,0-7.429,3.024-7.429,8.603c0,4.641,2.643,7.899,6.9,7.899c1.586,0,3.113-0.322,3.994-0.969l1.174-1.732v2.29h5.286V50.936z
		"/>
	<path fill="#222222" d="M75.935,72.517v-15.68h-5.286v15.68H75.935z M73.292,50.465c-1.645,0-2.731,0.998-2.731,2.584
		s1.086,2.585,2.731,2.585c1.644,0,2.73-0.999,2.73-2.585S74.936,50.465,73.292,50.465z"/>
	<path fill="#222222" d="M85.438,60.243h3.465v-3.288h-3.465v-4.053h-5.285v4.053h-2.496v3.288h2.496v6.548
		c0,0.881,0,1.614,0.059,2.525c0.176,2.407,1.351,3.611,5.256,3.611c1.116,0,2.085-0.088,3.113-0.264v-3.29
		c-2.496,0.118-2.995-0.234-3.113-1.819c-0.03-0.411-0.03-0.999-0.03-1.527V60.243z"/>
	<path fill="#222222" d="M106.457,56.837h-5.284v8.867c0,2.085-0.999,3.642-2.673,3.642s-2.378-0.881-2.555-2.378
		c-0.088-0.794-0.117-1.645-0.117-2.145v-7.986h-5.286v9.162c0,1.262,0.029,2.172,0.146,2.965c0.353,2.144,2.32,3.964,5.55,3.964
		c1.439,0,2.555-0.322,3.524-0.911l1.41-2.143v2.643h5.284V56.837z"/>
	<path fill="#222222" d="M116.11,69.346c-1.057,0-1.791-0.529-1.791-1.469c0-1.556,1.703-2.173,4.081-1.996v1.027
		C118.4,68.553,117.168,69.346,116.11,69.346z M118.813,72.517h5.167c-0.234-1.732-0.294-2.79-0.294-3.964v-4.404
		c0-0.969-0.029-1.879-0.088-2.672c-0.234-2.849-1.938-5.051-6.9-5.051c-3.964,0-7.223,2.085-7.252,5.755l4.991-0.029
		c0.089-1.351,0.793-2.144,2.026-2.144c1.145,0,1.791,0.705,1.879,1.498c0.059,0.499,0.059,0.822,0.059,1.146v0.234h-0.998
		c-5.314,0-8.486,2.056-8.486,5.403c0,3.024,2.438,4.639,5.021,4.639c1.438,0,2.76-0.353,3.876-1.057l0.646-1.645L118.813,72.517z"
		/>
	<path fill="#222222" d="M129.382,67.055c-1.733,0-2.938,1.205-2.938,2.938c0,1.731,1.204,2.936,2.938,2.936
		c1.731,0,2.936-1.204,2.936-2.936C132.317,68.26,131.113,67.055,129.382,67.055z"/>
	<path fill="#222222" d="M141.124,56.426c-4.17,0-6.871,1.938-6.871,5.051c0,2.672,1.791,4.052,4.786,4.757
		c2.79,0.646,3.788,1.203,3.788,2.201c0,0.823-0.734,1.205-1.674,1.205c-1.116,0-2.056-0.793-2.349-1.997h-5.198
		c0.411,3.523,3.318,5.285,7.576,5.285c3.787,0,6.93-1.557,6.93-4.904c0-3.023-2.026-4.257-4.874-4.962
		c-2.995-0.733-3.699-1.321-3.699-2.202c0-0.675,0.527-1.146,1.262-1.146c0.939,0,1.468,0.617,1.703,1.703h5.197
		C147.29,58.569,145.029,56.426,141.124,56.426z"/>
	<path fill="#222222" d="M155.451,72.517v-15.68h-5.285v15.68H155.451z M152.809,50.465c-1.645,0-2.73,0.998-2.73,2.584
		s1.086,2.585,2.73,2.585s2.73-0.999,2.73-2.585S154.453,50.465,152.809,50.465z"/>
	<path fill="#222222" d="M164.955,60.243h3.465v-3.288h-3.465v-4.053h-5.285v4.053h-2.496v3.288h2.496v6.548
		c0,0.881,0,1.614,0.059,2.525c0.176,2.407,1.351,3.611,5.256,3.611c1.116,0,2.085-0.088,3.112-0.264v-3.29
		c-2.496,0.118-2.995-0.234-3.112-1.819c-0.029-0.411-0.029-0.999-0.029-1.527V60.243z"/>
	<path fill="#222222" d="M177.577,60.008c1.408,0,2.319,0.911,2.613,2.76h-5.315C175.228,60.83,176.196,60.008,177.577,60.008z
		 M185.71,64.471c0-4.052-2.643-8.045-7.869-8.045c-5.228,0-8.368,3.729-8.368,8.31c0,5.521,3.582,8.192,8.075,8.192
		c4.022,0,6.959-1.996,7.868-5.55h-5.196c-0.206,1.204-1.116,1.968-2.614,1.968c-1.497,0-2.643-0.734-2.906-3.347h10.923
		C185.681,65.47,185.71,64.941,185.71,64.471z"/>
</g>
</svg>
